<!DOCTYPE svg PUBLIC "-//W3C//DTD SVG 1.1//EN" "http://www.w3.org/Graphics/SVG/1.1/DTD/svg11.dtd">
<!-- Uploaded to: SVG Repo, www.svgrepo.com, Transformed by: SVG Repo Mixer Tools -->
<svg fill="#ffffff" height="800px" width="800px" version="1.1" id="Layer_1" xmlns="http://www.w3.org/2000/svg" xmlns:xlink="http://www.w3.org/1999/xlink" viewBox="0 0 512 512" xml:space="preserve" stroke="#ffffff">
<g id="SVGRepo_bgCarrier" stroke-width="0"/>
<g id="SVGRepo_tracerCarrier" stroke-linecap="round" stroke-linejoin="round"/>
<g id="SVGRepo_iconCarrier"> <g> <g> <path d="M147.982,172.401c-5.636-0.455-10.538,3.722-10.996,9.335c-0.101,1.231-0.196,2.465-0.289,3.702 c-0.419,5.618,3.795,10.511,9.413,10.93c0.258,0.019,0.515,0.029,0.77,0.029c5.288,0,9.76-4.082,10.16-9.44 c0.089-1.19,0.181-2.377,0.276-3.562C157.775,177.782,153.596,172.859,147.982,172.401z"/> </g> </g> <g> <g> <path d="M438.61,312.609c10.671-26.727,16.088-54.974,16.088-84.128c0-60.727-23.649-117.819-66.589-160.76 c-42.941-42.941-100.033-66.59-160.76-66.59S109.529,24.779,66.589,67.72C23.649,110.66,0,167.752,0,228.48 s23.649,117.819,66.589,160.76c42.941,42.941,100.033,66.589,160.76,66.589c30.147,0,59.273-5.772,86.749-17.148 c12.451,41.7,51.152,72.189,96.848,72.189c55.722,0,101.055-45.333,101.055-101.055C512,363.68,480.926,324.668,438.61,312.609z M315.974,163.905c72.556,12.62,118.324,39.641,118.324,64.574s-45.768,51.955-118.324,64.574 c2.376-20.688,3.607-42.393,3.607-64.574S318.351,184.593,315.974,163.905z M429.744,185.253 c-11.422-9.069-26.604-17.281-45.243-24.322c-20.867-7.883-45.091-14.01-71.416-18.188c-4.18-26.325-10.305-50.548-18.188-71.416 c-7.042-18.639-15.253-33.821-24.322-45.243C350.06,43.043,412.786,105.769,429.744,185.253z M227.348,21.529 c24.933,0,51.955,45.768,64.574,118.324c-20.688-2.376-42.393-3.607-64.574-3.607c-22.175,0-43.874,1.23-64.557,3.605 c5.874-34.025,14.958-63.056,26.512-84.487C201.065,33.545,214.577,21.529,227.348,21.529z M184.037,26.103 c-4.252,5.374-8.508,11.826-12.69,19.581c-13.311,24.691-23.535,58.142-29.714,97.056c-26.333,4.18-50.565,10.306-71.437,18.191 c-18.639,7.042-33.821,15.253-45.243,24.322C41.905,105.796,104.593,43.088,184.037,26.103z M227.348,156.644 c24.143,0,46.83,1.488,67.703,4.132c2.644,20.874,4.132,43.56,4.132,67.703s-1.488,46.83-4.132,67.703 c-20.874,2.643-43.56,4.132-67.703,4.132s-46.831-1.488-67.703-4.132c-2.644-20.873-4.132-43.56-4.132-67.702 c0-3.293,0.03-6.671,0.088-10.04c0.099-5.632-4.389-10.277-10.02-10.375c-0.061-0.002-0.121-0.002-0.182-0.002 c-5.549,0-10.096,4.451-10.193,10.023c-0.061,3.485-0.092,6.982-0.092,10.393c0,22.181,1.231,43.886,3.607,64.574 C66.165,280.434,20.398,253.412,20.398,228.48C20.398,194.503,105.389,156.644,227.348,156.644z M24.953,271.706 c11.422,9.069,26.604,17.281,45.243,24.322c20.867,7.883,45.091,14.009,71.415,18.188c4.18,26.325,10.305,50.548,18.188,71.416 c7.042,18.639,15.254,33.821,24.322,45.243C104.638,413.916,41.912,351.19,24.953,271.706z M227.348,435.43 c-24.933,0-51.955-45.768-64.575-118.324c20.688,2.376,42.394,3.607,64.575,3.607c22.181,0,43.886-1.231,64.574-3.607 C279.303,389.662,252.281,435.43,227.348,435.43z M310.237,418.161c-12.848,5.63-26.111,9.882-39.704,12.764 c9.085-11.428,17.311-26.627,24.363-45.294c7.883-20.868,14.009-45.091,18.188-71.416c26.325-4.18,50.549-10.305,71.416-18.188 c18.672-7.054,33.873-15.281,45.302-24.369c-2.707,12.761-6.626,25.238-11.755,37.354c-2.347-0.164-4.714-0.253-7.102-0.253 c-55.722,0-101.055,45.333-101.055,101.056C309.891,412.625,310.012,415.408,310.237,418.161z M410.945,490.471 c-44.474,0-80.656-36.183-80.656-80.656c0-44.474,36.183-80.657,80.656-80.657c44.474,0,80.656,36.184,80.656,80.657 S455.419,490.471,410.945,490.471z"/> </g> </g> <g> <g> <path d="M436.287,362.446v-13.203c0-5.633-4.567-10.199-10.199-10.199c-5.632,0-10.199,4.566-10.199,10.199v7.073 c-1.629-0.149-3.276-0.237-4.944-0.237s-3.315,0.087-4.944,0.237v-7.073c0-5.633-4.567-10.199-10.199-10.199 s-10.199,4.566-10.199,10.199v13.203c-16.884,9.069-28.393,26.897-28.393,47.368c0,20.47,11.509,38.298,28.393,47.367v11.31 c0,5.633,4.567,10.199,10.199,10.199s10.199-4.566,10.199-10.199v-5.18c1.629,0.149,3.276,0.237,4.944,0.237 s3.315-0.087,4.944-0.237v5.18c0,5.633,4.567,10.199,10.199,10.199c5.632,0,10.199-4.566,10.199-10.199v-11.31 c16.884-9.069,28.393-26.897,28.393-47.367C464.68,389.344,453.171,371.515,436.287,362.446z M385.603,431.436 c-4.978-5.826-7.994-13.376-7.994-21.622c0-8.246,3.016-15.797,7.994-21.622V431.436z M415.889,442.782 c-1.614,0.24-3.264,0.368-4.944,0.368s-3.33-0.127-4.944-0.368v-65.935c1.614-0.241,3.264-0.369,4.944-0.369 c1.68,0,3.33,0.128,4.944,0.369V442.782z M436.287,431.437v-43.245c4.978,5.826,7.994,13.376,7.994,21.622 S441.264,425.611,436.287,431.437z"/> </g> </g> </g>
</svg>